<svg width="160" height="35" viewBox="0 0 160 35" fill="none" xmlns="http://www.w3.org/2000/svg">
<path fill-rule="evenodd" clip-rule="evenodd" d="M13.1029 0V9.0411L16.7956 9.16438C19.4956 9.24657 20.8456 9.49315 21.9971 10.0685C22.8706 10.5205 24.0618 11.4658 24.6971 12.1233C25.3324 12.7808 26.0868 13.9726 26.4044 14.7123C26.8412 15.6575 27 17.5068 27 21.1644C27 25.6027 26.8809 26.4658 26.2059 27.5342C25.7691 28.1918 24.8956 29.0548 24.2206 29.3836C23.2279 29.8767 20.9647 30 0 30L0.0397059 19.3973C0.0397059 12.411 0.198529 8.38356 0.516176 7.52055C0.794118 6.82192 1.54853 5.42466 2.22353 4.43836C2.97794 3.32877 4.28824 2.17808 5.79706 1.35616C7.70294 0.246575 8.57647 0 13.1029 0ZM4.92353 7.19178C4.64559 7.64384 4.24853 8.75342 4.01029 9.65753C3.77206 10.5616 3.57353 14.589 3.57353 18.6164V25.8904C22.1559 25.8904 22.2353 25.8904 22.8309 24.9452C23.2279 24.3288 23.4265 23.0137 23.4265 20.8356C23.4265 18.863 23.1882 17.2192 22.8309 16.4384C22.5132 15.7808 21.6397 14.8356 20.9647 14.3836C19.9324 13.726 18.9397 13.5616 16.3985 13.5616H13.1029V18.4932H19.0588V21.7808L9.33088 21.5753C9.13235 6.9863 9.01324 4.93151 8.61618 4.93151C8.37794 4.93151 7.50441 5.26027 6.75 5.67123C5.99559 6.0411 5.16176 6.73973 4.92353 7.19178Z" fill="url(#paint0_linear_272_75)"/>
<path d="M45.4729 24.8234V28.3885H35.0491V24.8234H45.4729ZM36.6233 7.79026V28.3885H32V7.79026H36.6233Z" fill="#192634"/>
<path d="M55.6414 24.7385V18.1742C55.6414 17.7121 55.5704 17.316 55.4286 16.9859C55.2868 16.6558 55.0646 16.3964 54.7621 16.2078C54.4595 16.0192 54.0672 15.9249 53.585 15.9249C53.1784 15.9249 52.8239 15.9956 52.5213 16.1371C52.2282 16.2785 52.0013 16.4813 51.8406 16.7454C51.6893 17.0095 51.6137 17.3349 51.6137 17.7215H47.1889C47.1889 17.033 47.3449 16.3917 47.6569 15.7975C47.9689 15.2034 48.4133 14.6799 48.99 14.2272C49.5762 13.7745 50.2758 13.4255 51.0889 13.1803C51.902 12.9257 52.8144 12.7983 53.8261 12.7983C55.0268 12.7983 56.0952 13.0011 57.0312 13.4067C57.9767 13.8028 58.7236 14.4017 59.2719 15.2034C59.8203 15.9956 60.0945 16.9953 60.0945 18.2025V24.6112C60.0945 25.5355 60.1465 26.2617 60.2505 26.7899C60.364 27.3086 60.5247 27.7613 60.7327 28.148V28.3885H56.2654C56.0574 27.9452 55.9014 27.3982 55.7974 26.7474C55.6934 26.0872 55.6414 25.4176 55.6414 24.7385ZM56.1945 19.0514L56.2228 21.4847H54.0246C53.533 21.4847 53.1075 21.546 52.7482 21.6686C52.3984 21.7912 52.1148 21.961 51.8973 22.1779C51.6799 22.3854 51.5191 22.6306 51.4151 22.9135C51.3206 23.187 51.2733 23.4889 51.2733 23.819C51.2733 24.1302 51.3489 24.4131 51.5002 24.6678C51.6515 24.913 51.8595 25.1063 52.1242 25.2478C52.389 25.3893 52.6962 25.46 53.0461 25.46C53.6228 25.46 54.1144 25.3468 54.521 25.1205C54.937 24.8941 55.2584 24.6206 55.4854 24.3C55.7123 23.9699 55.8257 23.6633 55.8257 23.3804L56.8894 25.2195C56.7192 25.5968 56.5112 25.9882 56.2654 26.3937C56.0195 26.7899 55.7075 27.1624 55.3294 27.5114C54.9512 27.8509 54.4926 28.1291 53.9537 28.346C53.4242 28.563 52.7861 28.6714 52.0391 28.6714C51.0748 28.6714 50.2002 28.4781 49.4155 28.0914C48.6307 27.6953 48.002 27.153 47.5293 26.4645C47.066 25.776 46.8343 24.9837 46.8343 24.0877C46.8343 23.2861 46.9809 22.574 47.274 21.9515C47.5671 21.3291 48.0067 20.8009 48.5929 20.3671C49.1886 19.9332 49.9355 19.6078 50.8337 19.3909C51.7319 19.1645 52.7813 19.0514 53.9821 19.0514H56.1945Z" fill="#192634"/>
<path d="M67.3415 16.3493V28.3885H62.9025V13.0813H67.072L67.3415 16.3493ZM66.76 20.1973L65.6538 20.2256C65.6538 19.0749 65.7957 18.0422 66.0793 17.1274C66.3629 16.2125 66.7648 15.4344 67.2848 14.7931C67.8142 14.1423 68.443 13.6472 69.171 13.3076C69.9084 12.9681 70.7215 12.7983 71.6103 12.7983C72.3288 12.7983 72.9859 12.9021 73.5816 13.1096C74.1772 13.3171 74.6877 13.6519 75.1132 14.114C75.5481 14.5667 75.879 15.1703 76.1059 15.9249C76.3329 16.6699 76.4463 17.5895 76.4463 18.6835V28.3885H71.9932V18.6694C71.9932 18.0281 71.9034 17.5329 71.7237 17.1839C71.5441 16.835 71.2794 16.5898 70.9295 16.4483C70.5892 16.3068 70.1732 16.2361 69.6815 16.2361C69.1615 16.2361 68.7171 16.3398 68.3484 16.5473C67.9797 16.7454 67.6771 17.0236 67.4408 17.382C67.2044 17.7404 67.0295 18.1601 66.916 18.6411C66.812 19.1221 66.76 19.6408 66.76 20.1973Z" fill="#192634"/>
<path d="M89.0115 13.0813H93.0392V27.8367C93.0392 29.242 92.7178 30.4351 92.0749 31.416C91.4414 32.3968 90.5574 33.1419 89.4228 33.6512C88.2883 34.1605 86.9599 34.4152 85.4377 34.4152C84.7759 34.4152 84.0857 34.3256 83.3671 34.1464C82.6486 33.9766 81.9726 33.7172 81.3391 33.3683C80.7056 33.0287 80.1762 32.5949 79.7507 32.0667L81.6369 29.4637C82.0718 29.9541 82.5918 30.3502 83.1969 30.652C83.802 30.9633 84.4922 31.1189 85.2675 31.1189C85.9766 31.1189 86.577 30.9915 87.0686 30.7369C87.5603 30.4823 87.9337 30.1097 88.189 29.6193C88.4537 29.1288 88.5861 28.5347 88.5861 27.8367V16.6605L89.0115 13.0813ZM78.758 20.9188V20.6217C78.758 19.4616 78.8998 18.4053 79.1834 17.4527C79.4671 16.4907 79.8784 15.6655 80.4173 14.977C80.9656 14.2791 81.6227 13.7415 82.3886 13.3642C83.1638 12.987 84.0337 12.7983 84.9981 12.7983C86.0381 12.7983 86.8984 12.9964 87.5792 13.3925C88.2599 13.7792 88.813 14.3262 89.2385 15.0336C89.6639 15.7315 89.9996 16.5568 90.2454 17.5093C90.4912 18.4525 90.6897 19.4758 90.841 20.5793V21.0886C90.6897 22.1449 90.4723 23.1305 90.1887 24.0453C89.905 24.9602 89.5363 25.7665 89.0825 26.4645C88.6286 27.153 88.0614 27.6953 87.3806 28.0914C86.7093 28.4781 85.9057 28.6714 84.9697 28.6714C84.0148 28.6714 83.1544 28.4781 82.3886 28.0914C81.6227 27.7047 80.9656 27.1624 80.4173 26.4645C79.8784 25.7665 79.4671 24.946 79.1834 24.0029C78.8998 23.0597 78.758 22.0317 78.758 20.9188ZM83.1828 20.6217V20.9188C83.1828 21.5224 83.2395 22.0836 83.3529 22.6023C83.4758 23.121 83.6555 23.5785 83.8919 23.9746C84.1377 24.3707 84.4402 24.6819 84.7995 24.9083C85.1682 25.1252 85.5984 25.2337 86.0901 25.2337C86.8086 25.2337 87.3901 25.0828 87.8344 24.781C88.2883 24.4697 88.6192 24.0406 88.8272 23.4936C89.0446 22.9465 89.1581 22.3099 89.1676 21.5837V20.0983C89.1676 19.4946 89.1061 18.9523 88.9832 18.4713C88.8603 17.9903 88.6759 17.5848 88.4301 17.2547C88.1937 16.9246 87.8817 16.6747 87.4941 16.5049C87.1159 16.3257 86.6573 16.2361 86.1184 16.2361C85.6362 16.2361 85.2108 16.3493 84.842 16.5756C84.4733 16.7925 84.166 17.0991 83.9202 17.4952C83.6744 17.8913 83.49 18.3582 83.3671 18.8958C83.2442 19.4239 83.1828 19.9992 83.1828 20.6217Z" fill="#192634"/>
<path d="M100.655 13.0813V28.3885H96.216V13.0813H100.655ZM95.9465 9.12009C95.9465 8.47875 96.1734 7.9553 96.6273 7.54975C97.0811 7.13477 97.6767 6.92728 98.4142 6.92728C99.1517 6.92728 99.7473 7.13477 100.201 7.54975C100.664 7.9553 100.896 8.47875 100.896 9.12009C100.896 9.75199 100.664 10.2754 100.201 10.6904C99.7473 11.096 99.1517 11.2987 98.4142 11.2987C97.6767 11.2987 97.0811 11.096 96.6273 10.6904C96.1734 10.2754 95.9465 9.75199 95.9465 9.12009Z" fill="#192634"/>
<path d="M108.186 16.3493V28.3885H103.747V13.0813H107.916L108.186 16.3493ZM107.604 20.1973L106.498 20.2256C106.498 19.0749 106.64 18.0422 106.923 17.1274C107.207 16.2125 107.609 15.4344 108.129 14.7931C108.658 14.1423 109.287 13.6472 110.015 13.3076C110.753 12.9681 111.566 12.7983 112.454 12.7983C113.173 12.7983 113.83 12.9021 114.426 13.1096C115.021 13.3171 115.532 13.6519 115.957 14.114C116.392 14.5667 116.723 15.1703 116.95 15.9249C117.177 16.6699 117.29 17.5895 117.29 18.6835V28.3885H112.837V18.6694C112.837 18.0281 112.747 17.5329 112.568 17.1839C112.388 16.835 112.123 16.5898 111.774 16.4483C111.433 16.3068 111.017 16.2361 110.526 16.2361C110.006 16.2361 109.561 16.3398 109.193 16.5473C108.824 16.7454 108.521 17.0236 108.285 17.382C108.048 17.7404 107.874 18.1601 107.76 18.6411C107.656 19.1221 107.604 19.6408 107.604 20.1973Z" fill="#192634"/>
<path d="M128.31 24.7385V18.1742C128.31 17.7121 128.239 17.316 128.097 16.9859C127.955 16.6558 127.733 16.3964 127.431 16.2078C127.128 16.0192 126.736 15.9249 126.253 15.9249C125.847 15.9249 125.492 15.9956 125.19 16.1371C124.897 16.2785 124.67 16.4813 124.509 16.7454C124.358 17.0095 124.282 17.3349 124.282 17.7215H119.857C119.857 17.033 120.013 16.3917 120.325 15.7975C120.637 15.2034 121.082 14.6799 121.658 14.2272C122.245 13.7745 122.944 13.4255 123.757 13.1803C124.571 12.9257 125.483 12.7983 126.495 12.7983C127.695 12.7983 128.764 13.0011 129.7 13.4067C130.645 13.8028 131.392 14.4017 131.94 15.2034C132.489 15.9956 132.763 16.9953 132.763 18.2025V24.6112C132.763 25.5355 132.815 26.2617 132.919 26.7899C133.032 27.3086 133.193 27.7613 133.401 28.148V28.3885H128.934C128.726 27.9452 128.57 27.3982 128.466 26.7474C128.362 26.0872 128.31 25.4176 128.31 24.7385ZM128.863 19.0514L128.891 21.4847H126.693C126.201 21.4847 125.776 21.546 125.417 21.6686C125.067 21.7912 124.783 21.961 124.566 22.1779C124.348 22.3854 124.188 22.6306 124.084 22.9135C123.989 23.187 123.942 23.4889 123.942 23.819C123.942 24.1302 124.017 24.4131 124.169 24.6678C124.32 24.913 124.528 25.1063 124.793 25.2478C125.057 25.3893 125.365 25.46 125.715 25.46C126.291 25.46 126.783 25.3468 127.189 25.1205C127.605 24.8941 127.927 24.6206 128.154 24.3C128.381 23.9699 128.494 23.6633 128.494 23.3804L129.558 25.2195C129.388 25.5968 129.18 25.9882 128.934 26.3937C128.688 26.7899 128.376 27.1624 127.998 27.5114C127.62 27.8509 127.161 28.1291 126.622 28.346C126.093 28.563 125.455 28.6714 124.708 28.6714C123.743 28.6714 122.869 28.4781 122.084 28.0914C121.299 27.6953 120.67 27.153 120.198 26.4645C119.734 25.776 119.503 24.9837 119.503 24.0877C119.503 23.2861 119.649 22.574 119.942 21.9515C120.236 21.3291 120.675 20.8009 121.261 20.3671C121.857 19.9332 122.604 19.6078 123.502 19.3909C124.4 19.1645 125.45 19.0514 126.651 19.0514H128.863Z" fill="#192634"/>
<path d="M143.47 13.0813V16.1795H134.366V13.0813H143.47ZM136.45 9.28985H140.889V23.5926C140.889 24.017 140.941 24.3424 141.045 24.5688C141.149 24.7951 141.319 24.9554 141.556 25.0498C141.792 25.1346 142.095 25.1771 142.463 25.1771C142.728 25.1771 142.955 25.1676 143.144 25.1488C143.333 25.1299 143.508 25.1063 143.669 25.078V28.2753C143.291 28.3979 142.889 28.4922 142.463 28.5582C142.038 28.6337 141.575 28.6714 141.074 28.6714C140.119 28.6714 139.291 28.5158 138.592 28.2046C137.902 27.8933 137.372 27.4029 137.003 26.7333C136.635 26.0542 136.45 25.1724 136.45 24.0877V9.28985Z" fill="#192634"/>
<path d="M152.83 28.6714C151.611 28.6714 150.519 28.4781 149.554 28.0914C148.59 27.7047 147.772 27.1718 147.101 26.4928C146.439 25.8043 145.933 25.012 145.583 24.116C145.234 23.2201 145.059 22.2628 145.059 21.2442V20.7066C145.059 19.5654 145.219 18.5138 145.541 17.5518C145.862 16.5898 146.33 15.7551 146.945 15.0477C147.569 14.3309 148.335 13.7792 149.242 13.3925C150.15 12.9964 151.185 12.7983 152.348 12.7983C153.436 12.7983 154.405 12.9775 155.256 13.3359C156.106 13.6849 156.825 14.1895 157.411 14.8497C157.997 15.5004 158.442 16.288 158.744 17.2122C159.056 18.1271 159.212 19.1551 159.212 20.2963V22.1071H146.846V19.2636H154.873V18.924C154.873 18.3865 154.773 17.9149 154.575 17.5093C154.386 17.1038 154.102 16.7925 153.724 16.5756C153.355 16.3493 152.887 16.2361 152.32 16.2361C151.781 16.2361 151.332 16.3493 150.973 16.5756C150.613 16.802 150.325 17.1226 150.108 17.5376C149.9 17.9432 149.748 18.4195 149.654 18.9665C149.559 19.5041 149.512 20.0841 149.512 20.7066V21.2442C149.512 21.8384 149.592 22.3807 149.753 22.8711C149.914 23.3615 150.15 23.7812 150.462 24.1302C150.774 24.4792 151.152 24.7527 151.597 24.9507C152.041 25.1488 152.547 25.2478 153.114 25.2478C153.814 25.2478 154.48 25.1158 155.114 24.8517C155.747 24.5782 156.296 24.1538 156.759 23.5785L158.829 25.941C158.517 26.3937 158.078 26.8323 157.51 27.2567C156.953 27.6717 156.281 28.0112 155.497 28.2753C154.712 28.5394 153.823 28.6714 152.83 28.6714Z" fill="#192634"/>
<path d="M101.15 8.85343C101.15 10.4293 99.8689 11.7069 98.2891 11.7069C96.7094 11.7069 95.4287 10.4293 95.4287 8.85343C95.4287 7.27753 96.7094 6 98.2891 6C99.8689 6 101.15 7.27753 101.15 8.85343Z" fill="black"/>
<defs>
<linearGradient id="paint0_linear_272_75" x1="-2.17578" y1="13.5801" x2="17.5115" y2="29.6598" gradientUnits="userSpaceOnUse">
<stop stop-color="#00DAF4"/>
<stop offset="0.2" stop-color="#5EDC00"/>
<stop offset="0.4" stop-color="#BADA6D"/>
<stop offset="0.6" stop-color="#FFC800"/>
<stop offset="0.8" stop-color="#FFAF00"/>
<stop offset="1" stop-color="#FF7800"/>
</linearGradient>
</defs>
</svg>
